<svg width="20" height="17" viewBox="0 0 20 17" fill="none" xmlns="http://www.w3.org/2000/svg">
<path d="M6.2825 16.75C13.83 16.75 17.9587 10.4962 17.9587 5.0825C17.9587 4.9075 17.9587 4.73 17.9513 4.555C18.7551 3.9731 19.4488 3.25269 20 2.4275C19.2491 2.75856 18.4535 2.97675 17.6388 3.075C18.4969 2.56204 19.1397 1.75496 19.4475 0.803747C18.6412 1.2814 17.7588 1.61671 16.8387 1.795C16.2202 1.13628 15.4018 0.699894 14.5101 0.553444C13.6185 0.406993 12.7034 0.558649 11.9067 0.984918C11.1099 1.41119 10.476 2.08828 10.1031 2.91132C9.73012 3.73436 9.63897 4.65741 9.84375 5.5375C8.21218 5.45569 6.61602 5.03183 5.1588 4.29343C3.70159 3.55502 2.41586 2.51855 1.385 1.25125C0.861675 2.1551 0.701967 3.22425 0.938308 4.24158C1.17465 5.25891 1.78932 6.14816 2.6575 6.72875C2.00692 6.70664 1.37065 6.53195 0.8 6.21875V6.275C0.801122 7.22185 1.12913 8.13927 1.72859 8.8722C2.32805 9.60512 3.16218 10.1086 4.09 10.2975C3.73783 10.3945 3.37404 10.4429 3.00875 10.4412C2.75123 10.442 2.49423 10.4182 2.24125 10.37C2.50348 11.1851 3.01409 11.8977 3.70156 12.4081C4.38903 12.9185 5.21892 13.2011 6.075 13.2162C4.62069 14.3585 2.82425 14.978 0.975 14.975C0.649151 14.9764 0.323529 14.9576 0 14.9187C1.87689 16.1153 4.05662 16.7507 6.2825 16.75Z" fill="#124591"/>
</svg>
