<svg width="20" height="19" viewBox="0 0 20 19" fill="none" xmlns="http://www.w3.org/2000/svg">
<path d="M9.99731 6.33198C8.16111 6.33198 6.66262 7.75557 6.66262 9.5C6.66262 11.2444 8.16111 12.668 9.99731 12.668C11.8335 12.668 13.332 11.2444 13.332 9.5C13.332 7.75557 11.8335 6.33198 9.99731 6.33198ZM19.9989 9.5C19.9989 8.18811 20.0114 6.88811 19.9338 5.5786C19.8563 4.05757 19.4911 2.70766 18.3203 1.59541C17.147 0.480781 15.7286 0.136173 14.1275 0.0624986C12.7466 -0.0111762 11.3782 0.000706907 9.99981 0.000706907C8.61891 0.000706907 7.25051 -0.0111762 5.8721 0.0624986C4.27105 0.136173 2.85012 0.483158 1.67935 1.59541C0.506076 2.71004 0.143338 4.05757 0.0657868 5.5786C-0.0117642 6.89049 0.000744099 8.19049 0.000744099 9.5C0.000744099 10.8095 -0.0117642 12.1119 0.0657868 13.4214C0.143338 14.9424 0.508578 16.2923 1.67935 17.4046C2.85262 18.5192 4.27105 18.8638 5.8721 18.9375C7.25301 19.0112 8.62141 18.9993 9.99981 18.9993C11.3807 18.9993 12.7491 19.0112 14.1275 18.9375C15.7286 18.8638 17.1495 18.5168 18.3203 17.4046C19.4936 16.29 19.8563 14.9424 19.9338 13.4214C20.0139 12.1119 19.9989 10.8119 19.9989 9.5ZM9.99731 14.3744C7.15795 14.3744 4.86644 12.1974 4.86644 9.5C4.86644 6.80255 7.15795 4.62558 9.99731 4.62558C12.8367 4.62558 15.1282 6.80255 15.1282 9.5C15.1282 12.1974 12.8367 14.3744 9.99731 14.3744ZM15.3383 5.56434C14.6754 5.56434 14.14 5.05575 14.14 4.42595C14.14 3.79615 14.6754 3.28755 15.3383 3.28755C16.0013 3.28755 16.5366 3.79615 16.5366 4.42595C16.5368 4.5755 16.5059 4.72361 16.4458 4.86181C16.3856 5.00001 16.2974 5.12558 16.1861 5.23133C16.0748 5.33708 15.9426 5.42093 15.7971 5.47807C15.6516 5.53521 15.4957 5.56453 15.3383 5.56434Z" fill="#124591"/>
</svg>
