<svg width="27" height="24" viewBox="0 0 27 24" fill="none" xmlns="http://www.w3.org/2000/svg">
<path d="M7.88876 0.279813C7.15768 0.280959 6.45688 0.55806 5.93992 1.0504C5.42296 1.54274 5.13201 2.21017 5.1308 2.90644L5.1308 21.2947C5.13128 21.9912 5.422 22.659 5.93912 23.1515C6.45623 23.644 7.15745 23.9209 7.88877 23.9214L18.9226 23.9214C19.6833 23.9214 20.3727 23.6269 20.8721 23.1514C21.3714 22.6758 21.6805 22.0192 21.6805 21.2947L21.6805 2.90645C21.6815 1.45845 20.443 0.278884 18.9226 0.279813L7.88876 0.279813ZM14.7846 19.5309C14.7846 19.7034 14.749 19.8742 14.6797 20.0335C14.6104 20.1929 14.5088 20.3376 14.3808 20.4596C14.2527 20.5815 14.1007 20.6783 13.9334 20.7443C13.7661 20.8103 13.5868 20.8443 13.4057 20.8443C13.2246 20.8443 13.0453 20.8103 12.878 20.7443C12.7106 20.6783 12.5586 20.5815 12.4306 20.4596C12.3025 20.3376 12.201 20.1929 12.1317 20.0335C12.0624 19.8742 12.0267 19.7034 12.0267 19.5309C12.0267 19.1826 12.172 18.8486 12.4306 18.6023C12.6892 18.356 13.0399 18.2176 13.4057 18.2176C13.7714 18.2176 14.1221 18.356 14.3808 18.6023C14.6394 18.8486 14.7846 19.1826 14.7846 19.5309ZM26.4875 17.6734L23.7295 17.6734L23.7295 6.52782L26.4884 6.52874L26.4875 17.6734ZM0.323872 6.52781L3.08183 6.52781L3.08183 17.6734L0.322896 17.6724L0.323872 6.52781Z" fill="#124591"/>
</svg>
