<svg width="17" height="17" viewBox="0 0 17 17" fill="none" xmlns="http://www.w3.org/2000/svg">
<path fill-rule="evenodd" clip-rule="evenodd" d="M2.10228e-07 1.42027C2.10228e-07 1.04359 0.149636 0.682343 0.415988 0.41599C0.682341 0.149637 1.04359 1.89342e-06 1.42027 1.89342e-06H15.5782C15.7649 -0.000302987 15.9497 0.0362141 16.1223 0.107463C16.2948 0.178711 16.4516 0.283291 16.5837 0.415216C16.7158 0.547141 16.8205 0.70382 16.8919 0.876282C16.9634 1.04874 17.0001 1.2336 17 1.42027V15.5782C17.0002 15.7649 16.9636 15.9498 16.8923 16.1224C16.8209 16.2949 16.7163 16.4517 16.5843 16.5837C16.4523 16.7158 16.2956 16.8205 16.1231 16.892C15.9506 16.9634 15.7657 17.0001 15.579 17H1.42027C1.23369 17 1.04895 16.9632 0.876579 16.8918C0.704214 16.8204 0.54761 16.7157 0.415715 16.5837C0.283821 16.4518 0.17922 16.2951 0.10789 16.1227C0.0365603 15.9503 -0.000101301 15.7655 2.10228e-07 15.579V1.42027ZM6.72891 6.48164H9.03086V7.63764C9.36314 6.97309 10.2131 6.375 11.4905 6.375C13.9392 6.375 14.5195 7.69868 14.5195 10.1274V14.6262H12.0414V10.6806C12.0414 9.29746 11.7091 8.517 10.8653 8.517C9.69464 8.517 9.20782 9.3585 9.20782 10.6806V14.6262H6.72891V6.48164ZM2.47891 14.5203H4.95782V6.375H2.47891V14.5203ZM5.3125 3.71836C5.31717 3.93061 5.27941 4.14165 5.20141 4.33911C5.12342 4.53656 5.00677 4.71645 4.85831 4.86821C4.70986 5.01997 4.53259 5.14055 4.3369 5.22287C4.14121 5.30519 3.93105 5.3476 3.71875 5.3476C3.50645 5.3476 3.29629 5.30519 3.1006 5.22287C2.90491 5.14055 2.72764 5.01997 2.57918 4.86821C2.43073 4.71645 2.31408 4.53656 2.23609 4.33911C2.15809 4.14165 2.12033 3.93061 2.125 3.71836C2.13417 3.30175 2.30612 2.90529 2.604 2.6139C2.90189 2.3225 3.30204 2.15932 3.71875 2.15932C4.13546 2.15932 4.53561 2.3225 4.8335 2.6139C5.13138 2.90529 5.30333 3.30175 5.3125 3.71836Z" fill="#124591"/>
</svg>
