<svg width="19" height="21" viewBox="0 0 19 21" fill="none" xmlns="http://www.w3.org/2000/svg">
<path d="M15.25 0.761719H3.75C2.9875 0.761719 2.25623 1.02511 1.71707 1.49395C1.1779 1.96279 0.875 2.59868 0.875 3.26172V18.2617C0.875 18.9248 1.1779 19.5606 1.71707 20.0295C2.25623 20.4983 2.9875 20.7617 3.75 20.7617H15.25C16.0125 20.7617 16.7438 20.4983 17.2829 20.0295C17.8221 19.5606 18.125 18.9248 18.125 18.2617V3.26172C18.125 2.59868 17.8221 1.96279 17.2829 1.49395C16.7438 1.02511 16.0125 0.761719 15.25 0.761719V0.761719ZM7.55363 7.81922C7.62045 7.76111 7.69979 7.71501 7.7871 7.68356C7.87441 7.65212 7.96799 7.63593 8.0625 7.63593C8.15701 7.63593 8.25059 7.65212 8.3379 7.68356C8.42521 7.71501 8.50455 7.76111 8.57137 7.81922C8.6382 7.87733 8.69121 7.94631 8.72738 8.02224C8.76354 8.09816 8.78216 8.17954 8.78216 8.26172C8.78216 8.3439 8.76354 8.42527 8.72738 8.5012C8.69121 8.57712 8.6382 8.64611 8.57137 8.70422L6.20381 10.7617L8.57137 12.8192C8.70634 12.9366 8.78216 13.0957 8.78216 13.2617C8.78216 13.4277 8.70634 13.5869 8.57137 13.7042C8.43641 13.8216 8.25337 13.8875 8.0625 13.8875C7.87163 13.8875 7.68859 13.8216 7.55363 13.7042L4.67862 11.2042C4.61169 11.1462 4.55858 11.0772 4.52235 11.0013C4.48612 10.9253 4.46747 10.8439 4.46747 10.7617C4.46747 10.6795 4.48612 10.5981 4.52235 10.5222C4.55858 10.4462 4.61169 10.3773 4.67862 10.3192L7.55363 7.81922ZM11.4464 7.81922L14.3214 10.3192C14.3883 10.3773 14.4414 10.4462 14.4776 10.5222C14.5139 10.5981 14.5325 10.6795 14.5325 10.7617C14.5325 10.8439 14.5139 10.9253 14.4776 11.0013C14.4414 11.0772 14.3883 11.1462 14.3214 11.2042L11.4464 13.7042C11.3795 13.7623 11.3002 13.8084 11.2129 13.8399C11.1256 13.8713 11.032 13.8875 10.9375 13.8875C10.843 13.8875 10.7494 13.8713 10.6621 13.8399C10.5748 13.8084 10.4955 13.7623 10.4286 13.7042C10.3618 13.6461 10.3088 13.5771 10.2726 13.5012C10.2365 13.4253 10.2178 13.3439 10.2178 13.2617C10.2178 13.1795 10.2365 13.0982 10.2726 13.0222C10.3088 12.9463 10.3618 12.8773 10.4286 12.8192L12.7962 10.7617L10.4286 8.70422C10.2937 8.58686 10.2178 8.42769 10.2178 8.26172C10.2178 8.09575 10.2937 7.93658 10.4286 7.81922C10.5636 7.70186 10.7466 7.63593 10.9375 7.63593C11.1284 7.63593 11.3114 7.70186 11.4464 7.81922Z" fill="#124591"/>
</svg>
